<svg width="172" height="114" viewBox="0 0 172 114" fill="none" xmlns="http://www.w3.org/2000/svg">
<path d="M169.9 104.45L163.17 97.72V94.35C163.17 86.77 157.28 80.6 149.84 80.04V75.41H153.21C161.21 75.41 167.66 68.96 167.66 60.96V46.51C167.66 45.25 166.68 44.26 165.41 44.26C164.15 44.26 163.17 45.24 163.17 46.51C163.17 45.25 162.19 44.26 160.92 44.26C159.66 44.26 158.68 45.24 158.68 46.51C158.68 45.25 157.7 44.26 156.44 44.26C155.18 44.26 154.19 45.24 154.19 46.51V58.72C154.19 60.68 152.79 62.09 150.82 62.09H149.7V46.52H121.78C118.69 46.52 116.17 44.13 116.17 40.91C116.17 37.82 118.56 35.3 121.78 35.3H149.7V33.05C152.09 33.05 154.19 31.09 154.19 28.56C154.19 26.17 152.23 24.07 149.7 24.07V16.21C149.7 8.35001 145.35 4 137.49 4H124.16C116.3 4 111.95 8.49001 111.95 16.21V24.07C109.56 24.07 107.46 26.03 107.46 28.56C107.46 30.95 109.42 33.05 111.95 33.05V62.08H110.83C108.87 62.08 107.46 60.68 107.46 58.71V46.5C107.46 45.24 106.48 44.25 105.22 44.25C103.96 44.25 102.97 45.23 102.97 46.5C102.97 45.24 101.99 44.25 100.73 44.25C99.47 44.25 98.49 45.23 98.49 46.5C98.49 45.24 97.51 44.25 96.24 44.25C94.98 44.25 94 45.23 94 46.5V60.95C94 68.95 100.45 75.4 108.45 75.4H111.82V85.36C111.82 87.32 110.42 88.73 108.45 88.73H100.59V108.79L107.32 102.06H110.69C116.72 102.06 121.77 98.41 124.02 93.08H146.33C148.29 93.08 149.7 94.48 149.7 96.45V104.31H169.91V104.45H169.9Z" fill="#E2CBB5"/>
<path d="M136.68 4H123.21C115.35 4 111 8.48999 111 16.21V17.33L113.25 15.08L116.62 18.45L119.99 15.08L123.36 18.45L126.73 15.08L130.1 18.45L133.47 15.08L136.84 18.45L140.21 15.08L143.58 18.45L146.95 15.08L149.19 17.33V16.21C148.89 8.48999 144.54 4 136.68 4Z" fill="#BF6C35"/>
<path d="M122.49 29.98C124.97 29.98 126.98 27.9698 126.98 25.49C126.98 23.0102 124.97 21 122.49 21C120.01 21 118 23.0102 118 25.49C118 27.9698 120.01 29.98 122.49 29.98Z" fill="white"/>
<path d="M136.49 29.98C138.97 29.98 140.98 27.9698 140.98 25.49C140.98 23.0102 138.97 21 136.49 21C134.01 21 132 23.0102 132 25.49C132 27.9698 134.01 29.98 136.49 29.98Z" fill="white"/>
<path d="M123.25 28.5C124.493 28.5 125.5 27.4926 125.5 26.25C125.5 25.0074 124.493 24 123.25 24C122.007 24 121 25.0074 121 26.25C121 27.4926 122.007 28.5 123.25 28.5Z" fill="#9FA628"/>
<path d="M136.25 28.5C137.493 28.5 138.5 27.4926 138.5 26.25C138.5 25.0074 137.493 24 136.25 24C135.007 24 134 25.0074 134 26.25C134 27.4926 135.007 28.5 136.25 28.5Z" fill="#9FA628"/>
<path d="M123.29 31.91C120.34 31.91 117.82 29.52 117.82 26.44C117.82 23.36 120.21 20.97 123.29 20.97C126.24 20.97 128.76 23.36 128.76 26.44C128.76 29.52 126.38 31.91 123.29 31.91ZM123.29 22.93C121.33 22.93 119.78 24.47 119.78 26.44C119.78 28.4 121.32 29.95 123.29 29.95C125.26 29.95 126.8 28.41 126.8 26.44C126.8 24.47 125.26 22.93 123.29 22.93ZM136.76 31.91C133.81 31.91 131.29 29.52 131.29 26.44C131.29 23.36 133.68 20.97 136.76 20.97C139.71 20.97 142.23 23.36 142.23 26.44C142.23 29.52 139.71 31.91 136.76 31.91ZM136.76 22.93C134.8 22.93 133.25 24.47 133.25 26.44C133.25 28.4 134.79 29.95 136.76 29.95C138.73 29.95 140.27 28.41 140.27 26.44C140.27 24.47 138.59 22.93 136.76 22.93ZM171.7 105.57L163.42 97.29V94.34C163.42 86.48 157.67 80.03 150.09 78.91V76.52H152.33C160.89 76.52 167.9 69.5 167.9 60.95V46.5C167.9 44.54 166.5 43.13 164.53 43.13C163.69 43.13 162.85 43.41 162.28 43.97C161.72 43.41 160.88 43.13 160.04 43.13C159.2 43.13 158.36 43.41 157.79 43.97C157.23 43.41 156.39 43.13 155.55 43.13C153.59 43.13 152.18 44.53 152.18 46.5V58.71C152.18 59.97 151.2 60.95 149.94 60.95V45.38H144.33V44.82C144.33 43.98 143.49 43.14 142.65 43.14C141.81 43.14 140.97 43.98 140.97 44.82V45.38H137.6V44.82C137.6 43.98 136.76 43.14 135.92 43.14C135.08 43.14 134.24 43.98 134.24 44.82V45.38H130.87V44.82C130.87 43.98 130.03 43.14 129.19 43.14C128.35 43.14 127.51 43.98 127.51 44.82V45.38H124.14V44.82C124.14 43.98 123.3 43.14 122.46 43.14C121.62 43.14 120.78 43.98 120.78 44.82V45.38C118.39 45.38 116.29 43.42 116.29 40.89C116.29 38.5 118.25 36.4 120.78 36.4H124.15V36.96C124.15 37.8 124.99 38.64 125.83 38.64C126.67 38.64 127.51 37.8 127.51 36.96V36.4H130.88V36.96C130.88 37.8 131.72 38.64 132.56 38.64C133.4 38.64 134.24 37.8 134.24 36.96V36.4H137.61V36.96C137.61 37.8 138.45 38.64 139.29 38.64C140.13 38.64 140.97 37.8 140.97 36.96V36.4H144.34V36.96C144.34 37.8 145.18 38.64 146.02 38.64C146.86 38.64 147.7 37.8 147.7 36.96V36.4H149.95V34.01C152.48 33.45 154.44 31.2 154.44 28.54C154.44 25.87 152.48 23.63 149.95 23.07V16.33C149.95 7.91 145.04 3 136.62 3H123.29C114.87 3 109.96 7.91 109.96 16.33V23.07C107.43 23.63 105.47 25.88 105.47 28.54C105.47 31.21 107.43 33.45 109.96 34.01V60.81C108.7 60.81 107.72 59.83 107.72 58.57V46.36C107.72 44.4 106.32 42.99 104.35 42.99C103.51 42.99 102.67 43.27 102.1 43.83C101.54 43.27 100.7 42.99 99.86 42.99C99.02 42.99 98.18 43.27 97.62 43.83C97.06 43.27 96.22 42.99 95.37 42.99C93.41 42.99 92 44.39 92 46.36V60.81C92 69.37 99.02 76.38 107.57 76.38H109.81V85.36C109.81 86.62 108.83 87.6 107.57 87.6H98.59V111.45L106.87 103.17H109.82C115.85 103.17 121.33 99.66 123.85 94.19H145.46C146.72 94.19 147.7 95.17 147.7 96.44V105.42H171.69V105.57H171.7ZM150.09 63.2C152.48 63.2 154.58 61.24 154.58 58.71V46.5C154.58 45.8 155 45.38 155.7 45.38C156.4 45.38 156.82 45.8 156.82 46.5C156.82 47.2 157.24 47.62 157.94 47.62C158.64 47.62 159.06 47.2 159.06 46.5C159.06 45.8 159.48 45.38 160.18 45.38C160.88 45.38 161.3 45.8 161.3 46.5C161.3 47.2 161.72 47.62 162.42 47.62C163.12 47.62 163.54 47.2 163.54 46.5C163.54 45.8 163.96 45.38 164.66 45.38C165.36 45.38 165.78 45.8 165.78 46.5V60.95C165.78 68.25 159.75 74.28 152.45 74.28H150.2V63.2H150.09ZM150.09 25.45C151.49 25.87 152.33 27.13 152.33 28.54C152.33 29.94 151.49 31.21 150.09 31.63V25.45ZM107.72 28.68C107.72 27.28 108.56 26.01 109.96 25.59V31.9C108.56 31.35 107.72 30.08 107.72 28.68ZM145.6 92.24H122.59L122.31 92.94C120.21 97.99 115.43 101.22 109.96 101.22H106.17L100.98 106.41V90.13H107.71C110.1 90.13 112.2 88.17 112.2 85.64V74.56H107.71C100.41 74.56 94.38 68.53 94.38 61.23V46.78C94.38 46.08 94.8 45.66 95.5 45.66C96.2 45.66 96.62 46.08 96.62 46.78C96.62 47.48 97.04 47.9 97.74 47.9C98.44 47.9 98.86 47.48 98.86 46.78C98.86 46.08 99.28 45.66 99.98 45.66C100.68 45.66 101.1 46.08 101.1 46.78C101.1 47.48 101.52 47.9 102.22 47.9C102.92 47.9 103.34 47.48 103.34 46.78C103.34 46.08 103.76 45.66 104.46 45.66C105.16 45.66 105.58 46.08 105.58 46.78V58.99C105.58 61.38 107.54 63.48 110.07 63.48H112.31V16.62C112.31 9.46 116.38 5.54001 123.39 5.54001H136.72C143.88 5.54001 147.8 9.60999 147.8 16.62V34.44H121C117.35 34.44 114.27 37.39 114.27 41.17C114.27 44.82 117.22 47.91 121 47.91H147.8V81.3L148.78 81.44C155.66 82 161.13 87.75 161.13 94.77V98.56L166.32 103.75H150.18V97.02C150.09 94.21 148.13 92.24 145.6 92.24Z" fill="#663F4C"/>
<path d="M22.31 47.98C19.22 47.98 16.7 45.59 16.7 42.37C16.7 39.28 19.09 36.76 22.31 36.76H50.23V17.82C50.23 9.95998 45.88 5.60999 38.02 5.60999H24.7C16.84 5.60999 12.49 10.1 12.49 17.82V86.85C12.49 88.81 11.09 90.22 9.11999 90.22H1.25999V110.28L7.98999 103.55H11.36C17.39 103.55 22.44 99.9 24.69 94.57H47C48.96 94.57 50.37 95.97 50.37 97.94V105.8H70.43L63.69 99.07V95.84C63.69 88.26 57.8 82.09 50.36 81.53V79.14H77.16L71.55 74.65L78.29 72.41L71.55 70.16L77.16 65.67H50.36V61.18H77.16L71.55 56.69L78.29 54.44L71.55 52.19L77.16 47.7H22.31V47.98Z" fill="#9FA628"/>
<path d="M24.55 32.41C27.0298 32.41 29.04 30.3998 29.04 27.92C29.04 25.4402 27.0298 23.43 24.55 23.43C22.0702 23.43 20.06 25.4402 20.06 27.92C20.06 30.3998 22.0702 32.41 24.55 32.41Z" fill="white"/>
<path d="M37.88 32.41C40.3598 32.41 42.37 30.3998 42.37 27.92C42.37 25.4402 40.3598 23.43 37.88 23.43C35.4002 23.43 33.39 25.4402 33.39 27.92C33.39 30.3998 35.4002 32.41 37.88 32.41Z" fill="white"/>
<path d="M24.55 30.17C25.7926 30.17 26.8 29.1626 26.8 27.92C26.8 26.6773 25.7926 25.67 24.55 25.67C23.3074 25.67 22.3 26.6773 22.3 27.92C22.3 29.1626 23.3074 30.17 24.55 30.17Z" fill="#BF6C35"/>
<path d="M37.88 30.17C39.1226 30.17 40.13 29.1626 40.13 27.92C40.13 26.6773 39.1226 25.67 37.88 25.67C36.6374 25.67 35.63 26.6773 35.63 27.92C35.63 29.1626 36.6374 30.17 37.88 30.17Z" fill="#BF6C35"/>
<path d="M12.21 82.5V71.42L2.25 77.03L12.21 82.5ZM12.21 71.41V60.33L2.25 65.94L12.21 71.41ZM12.21 60.19V49.11L2.25 54.72L12.21 60.19ZM2.25 43.49L12.21 49.1V38.02L2.25 43.49Z" fill="#E2CBB5"/>
<path d="M50.09 46.86L47.85 42.37L45.61 46.86H43.37L41.13 42.37L38.89 46.86H36.65L34.41 42.37L32.17 46.86H30.07L27.83 42.37L25.59 46.86H23.35L21.11 42.37L19.43 45.88C18.45 45.04 17.75 43.78 17.75 42.37C17.75 40.27 19.15 38.44 21.26 38.02L23.36 42.37L25.6 37.88H27.84L30.08 42.37L32.32 37.88H34.56L36.8 42.37L39.04 37.88H41.28L43.52 42.37L45.76 37.88H51.37V17.82C51.37 14.03 50.39 11.08 48.56 8.84L51.51 5.89C52.49 6.31 53.47 6.73 54.74 6.73C55.44 6.73 55.86 6.31 55.86 5.61C55.86 4.91 55.44 4.48999 54.74 4.48999C52.64 4.48999 51.37 3.23 51.37 1.12C51.37 0.419995 50.95 0 50.25 0C49.55 0 49.13 0.419995 49.13 1.12C49.13 2.38 49.41 3.36999 49.97 4.20999L47.02 7.16C44.63 5.48 41.69 4.48999 37.9 4.48999H24.55C20.76 4.48999 17.81 5.47 15.57 7.3L12.62 4.34999C13.04 3.36999 13.46 2.39 13.46 1.12C13.46 0.419995 13.04 0 12.34 0C11.64 0 11.22 0.419995 11.22 1.12C11.22 3.22 9.96 4.48999 7.85 4.48999C7.15 4.48999 6.73 4.91 6.73 5.61C6.73 6.31 7.15 6.73 7.85 6.73C9.11 6.73 10.09 6.45 10.94 5.89L13.89 8.84C12.07 11.09 11.08 14.03 11.08 17.82V37.18L0 43.49L9.96 49.1L0 54.71L9.96 60.32L0 65.93L9.96 71.54L0 77.15L11.22 83.32V87.11C11.22 88.37 10.24 89.36 8.98 89.36H0V113.21L8.28 104.93H11.23C17.26 104.93 22.74 101.42 25.26 95.95H46.87C48.13 95.95 49.11 96.93 49.11 98.19V107.17H72.96L64.68 98.89V95.8C64.68 87.94 58.93 81.49 51.35 80.37V80.09H80.25L73.8 74.9L81.66 72.23L73.8 69.56L80.25 64.37H51.35V62.13H80.25L73.8 56.94L81.66 54.27L73.8 51.6L80.25 46.41H50.09V46.86ZM51.21 49.1H73.66L69.03 52.89L74.5 54.71L69.03 56.53L73.66 60.32H51.21V49.1ZM11.08 39.84V47.14L4.49 43.49L11.08 39.84ZM11.08 50.93V58.23L4.49 54.58L11.08 50.93ZM11.08 62.15V69.45L4.49 65.8L11.08 62.15ZM4.49 76.89L11.08 73.24V80.54L4.49 76.89ZM13.33 17.81C13.33 10.65 17.4 6.73 24.41 6.73H37.74C44.9 6.73 48.82 10.8 48.82 17.81V35.63H22.31C18.66 35.63 15.58 38.58 15.58 42.37C15.58 46.02 18.53 49.11 22.31 49.11H49.11V66.93H73.8L69.17 70.72L74.64 72.54L69.17 74.36L73.8 78.15H49.11V82.64L50.09 82.78C56.97 83.2 62.44 89.09 62.44 96.11V99.9L67.63 105.09H51.35V98.36C51.35 95.97 49.39 93.87 46.86 93.87H23.71L23.43 94.57C21.47 99.62 16.69 102.85 11.22 102.85H7.44L2.25 108.04V91.76H8.98C11.37 91.76 13.47 89.8 13.47 87.27V17.82H13.33V17.81ZM24.55 33.39C27.5 33.39 30.02 31 30.02 27.92C30.02 24.84 27.63 22.45 24.55 22.45C21.6 22.45 19.08 24.84 19.08 27.92C19.08 31 21.47 33.39 24.55 33.39ZM24.55 24.41C26.51 24.41 28.06 25.95 28.06 27.92C28.06 29.88 26.52 31.43 24.55 31.43C22.58 31.43 21.04 29.89 21.04 27.92C21.05 25.95 22.59 24.41 24.55 24.41ZM37.88 33.39C40.83 33.39 43.35 31 43.35 27.92C43.35 24.84 40.96 22.45 37.88 22.45C34.93 22.45 32.41 24.84 32.41 27.92C32.41 31 34.8 33.39 37.88 33.39ZM37.88 24.41C39.84 24.41 41.39 25.95 41.39 27.92C41.39 29.88 39.85 31.43 37.88 31.43C35.92 31.43 34.37 29.89 34.37 27.92C34.38 25.95 35.92 24.41 37.88 24.41Z" fill="#663F4C"/>
</svg>
